<svg width="400" height="400" xmlns="http://www.w3.org/2000/svg">
  <g transform="translate(200,400) scale(1,-1)">
    <g transform="rotate(0)">
      <line x1="0" y1="0" x2="0" y2="-100" stroke="black" stroke-width="2"/>
      <line x1="0" y1="-100" x2="-50" y2="-200" stroke="black" stroke-width="2"/>
      <line x1="0" y1="-100" x2="50" y2="-200" stroke="black" stroke-width="2"/>
      <g transform="translate(-50,-200) scale(0.5)">
        <use xlink:href="#dendrimer" />
      </g>
      <g transform="translate(50,-200) scale(0.5)">
        <use xlink:href="#dendrimer" />
      </g>
    </g>
    <g transform="rotate(120)">
      <line x1="0" y1="0" x2="0" y2="-100" stroke="black" stroke-width="2"/>
      <line x1="0" y1="-100" x2="-50" y2="-200" stroke="black" stroke-width="2"/>
      <line x1="0" y1="-100" x2="50" y2="-200" stroke="black" stroke-width="2"/>
      <g transform="translate(-50,-200) scale(0.5)">
        <use xlink:href="#dendrimer" />
      </g>
      <g transform="translate(50,-200) scale(0.5)">
        <use xlink:href="#dendrimer" />
      </g>
    </g>
    <g transform="rotate(240)">
      <line x1="0" y1="0" x2="0" y2="-100" stroke="black" stroke-width="2"/>
      <line x1="0" y1="-100" x2="-50" y2="-200" stroke="black" stroke-width="2"/>
      <line x1="0" y1="-100" x2="50" y2="-200" stroke="black" stroke-width="2"/>
      <g transform="translate(-50,-200) scale(0.5)">
        <use xlink:href="#dendrimer" />
      </g>
      <g transform="translate(50,-200) scale(0.5)">
        <use xlink:href="#dendrimer" />
      </g>
    </g>
  </g>
  <defs>
    <g id="dendrimer">
      <line x1="0" y1="0" x2="0" y2="-100" stroke="black" stroke-width="2"/>
      <line x1="0" y1="-100" x2="-50" y2="-200" stroke="black" stroke-width="2"/>
      <line x1="0" y1="-100" x2="50" y2="-200" stroke="black" stroke-width="2"/>
      <g transform="translate(-50,-200) scale(0.5)">
        <use xlink:href="#dendrimer" />
      </g>
      <g transform="translate(50,-200) scale(0.5)">
        <use xlink:href="#dendrimer" />
      </g>
    </g>
  </defs>
</svg>
